<svg version="1" xmlns="http://www.w3.org/2000/svg" width="682.667" height="682.667" viewBox="0 0 512.000000 512.000000"><path d="M237.8.4c-.1.2-3.9.6-8.2 1-4.4.4-8.2.9-8.5 1.1-.4.2-3.4.7-6.6 1-11.7 1.4-47.2 11.1-49.9 13.6-.6.5-1.6.9-2.3.9-.8 0-4.4 1.4-8.1 3.1-3.7 1.7-8.3 3.8-10.2 4.7-1.9.9-7.5 3.8-12.5 6.6C96.9 51.5 66.4 79.6 43.8 113c-5.9 8.8-8.3 12.7-15.1 25.2-8 14.6-19.8 46.8-22.1 60.1-.3 1.5-.7 3.5-1 4.5-.3.9-.7 3.4-1.1 5.6-.3 2.1-.7 4.1-.9 4.5-.4.6-1.2 6.8-2.6 20.1-.8 8.1-.5 46.3.5 52 .3 1.9 1.3 7.8 2.1 13 1.5 9.3 6.9 32.4 8 34.1.3.5.7 1.7.9 2.6.2 1 1.7 5.4 3.3 9.8 25.9 68.8 78.1 122.4 145.7 149.3 19.8 7.9 41.9 13.7 60.5 15.8 3 .3 7.6 1 10.2 1.4 4.9.7 47.3.5 51.8-.4 1.4-.2 4.5-.7 7-1 2.5-.4 9.2-1.6 15-2.7 5.8-1.2 11.6-2.3 13-2.6 3.8-.7 31.6-10.1 36.9-12.4 51.3-23 91.9-58.2 119-103.3 16.6-27.6 28.7-60.1 33.7-90.6 3.8-23.6 4-57.3.5-80.5-5.3-35-18-68.7-37.5-99.5-2.3-3.6-4.6-7.2-5.3-8-.6-.8-3.8-5.1-7.1-9.5-24.1-32.2-61.3-61.7-98.7-78.1-4.4-2-8.9-3.9-10-4.4C341.9 14.2 314 6.1 304 4.6c-1.9-.3-4.6-.8-6-1.1-1.4-.3-4.5-.8-7-1.1-2.5-.3-5.6-.8-7-1-2.8-.6-45.6-1.4-46.2-1zm47.8 53c27.1 4.2 52.8 13.4 75.4 26.9 33.8 20.2 63.4 52.9 80.2 88.7 3.6 7.6 8.4 19.9 8.8 22.5.1.3.7 2 1.5 3.8 1.8 4.3 4.6 16 6.4 26.7 2.8 16.3 3.5 41.3 1.5 57.4-4.6 37.3-18.4 71.3-41.4 101.7-7.5 9.8-26 28.6-34.5 35-3.3 2.4-6.2 4.7-6.5 5-.3.4-4.8 3.4-10 6.8-18.4 12-45.2 23.4-64.5 27.5-.5.2-3.5.8-6.5 1.4-11.2 2.5-27.9 3.9-43 3.7-16.6-.3-23.3-.9-38.9-4-19.3-3.7-46.4-14.6-65.6-26.2-25.5-15.4-52.8-43.2-68.4-69.7-13.5-22.8-23.9-52.1-26.7-75.1-.3-2.2-.9-7.2-1.3-11-1-7.7-.7-32.5.4-42 .4-3.3 1.4-9.4 2.2-13.5.8-4.1 1.7-8.8 2-10.4.2-1.7 2.5-9 4.9-16.2 10.4-31.6 26.8-58 50.6-81.6 22-21.9 45.8-36.9 75.3-47.6 9.4-3.4 19.8-6.4 26.6-7.7 3-.6 22.3-3.4 25.4-3.8 7.8-.8 37.1.3 46.1 1.7z"/><path d="M236.5 129.6c-54.4 8.8-96.7 50.4-106.5 104.7-2.2 12.3-2 34.5.5 46.2 2.3 11.2 7 24.6 11.8 33.9 8.1 15.7 22 32.5 34.7 42 3 2.2 5.7 4.3 6 4.7 1.1 1.2 12.8 7.9 19 10.8 7.6 3.6 22.6 8.5 29 9.6 2.5.4 5.4.9 6.5 1.2 4.6 1.1 29.8.9 37.1-.3 31.1-4.9 54.9-17.8 77.1-41.7 5.3-5.7 14.4-19 18.4-27 3.3-6.3 10.2-24.7 9.4-24.7-.2 0 0-1.2.6-2.6.5-1.5 1.2-4.2 1.5-6.2.3-1.9.8-4.4 1.1-5.6 1.2-4.9 1-29.6-.3-38.1-7.1-46.5-40.3-86.1-84.9-101.3-4.9-1.7-10.1-3.3-11.5-3.6-1.4-.2-5-1-8-1.7-7.8-1.6-32-1.8-41.5-.3z"/></svg>